<svg width="22" height="22" viewBox="0 0 22 22" fill="none" xmlns="http://www.w3.org/2000/svg">
<path fill-rule="evenodd" clip-rule="evenodd" d="M11 16.6666C7.79415 16.6666 5.02187 14.8779 2.70204 10.9999C5.02187 7.12198 7.79415 5.33325 11 5.33325C14.2058 5.33325 16.9781 7.12198 19.2979 10.9999C16.9781 14.8779 14.2058 16.6666 11 16.6666ZM11 3.83325C6.9733 3.83325 3.70821 6.20741 1.18214 10.6278C1.05037 10.8584 1.05037 11.1415 1.18214 11.372C3.70821 15.7924 6.9733 18.1666 11 18.1666C15.0267 18.1666 18.2917 15.7924 20.8178 11.372C20.9496 11.1415 20.9496 10.8584 20.8178 10.6278C18.2917 6.20741 15.0267 3.83325 11 3.83325ZM9.91665 10.9999C9.91665 10.4016 10.4017 9.91658 11 9.91658C11.5983 9.91658 12.0833 10.4016 12.0833 10.9999C12.0833 11.5982 11.5983 12.0833 11 12.0833C10.4017 12.0833 9.91665 11.5982 9.91665 10.9999ZM11 8.41658C9.57324 8.41658 8.41665 9.57318 8.41665 10.9999C8.41665 12.4267 9.57324 13.5833 11 13.5833C12.4267 13.5833 13.5833 12.4267 13.5833 10.9999C13.5833 9.57318 12.4267 8.41658 11 8.41658Z" fill="#212121"/>
</svg>
