<svg width="25" height="24" viewBox="0 0 25 24" fill="none" xmlns="http://www.w3.org/2000/svg">
<path fill-rule="evenodd" clip-rule="evenodd" d="M6.2777 2.25C6.571 2.25 6.82561 2.44084 6.91266 2.71336L6.93529 2.80707L7.58259 6.69444H20.4999C20.8744 6.69444 21.1688 7.00062 21.1667 7.36361L21.1599 7.45539L20.271 13.6776L20.2399 13.8045C19.7672 15.1488 18.4959 16.0375 17.1172 16.033L16.9444 16.0278L10.7599 16.0267C9.33721 16.1074 8.02787 15.2757 7.48976 13.9701L7.42656 13.8045L7.39788 13.6929L6.39147 7.65444L6.37453 7.62061C6.35204 7.56744 6.33625 7.51074 6.32823 7.45157L6.32214 7.36111C6.32214 7.33043 6.32421 7.30023 6.32823 7.27065L5.71236 3.58333H4.49992C4.16241 3.58333 3.88348 3.33253 3.83934 3.00713L3.83325 2.91667C3.83325 2.57916 4.08406 2.30023 4.40946 2.25609L4.49992 2.25H6.2777ZM19.731 8.02778H7.80481L8.70081 13.4047L8.74184 13.5073C9.05525 14.2169 9.75476 14.682 10.5598 14.6974L10.7221 14.6944L16.9821 14.6955C17.819 14.743 18.5905 14.2642 18.9247 13.5073L18.9613 13.4127L19.731 8.02778ZM7.38881 19.3056C7.38881 17.9555 8.48322 16.8611 9.83325 16.8611C11.1833 16.8611 12.2777 17.9555 12.2777 19.3056C12.2777 20.6556 11.1833 21.75 9.83325 21.75C8.48322 21.75 7.38881 20.6556 7.38881 19.3056ZM10.9444 19.3056C10.9444 18.6919 10.4469 18.1944 9.83325 18.1944C9.2196 18.1944 8.72214 18.6919 8.72214 19.3056C8.72214 19.9192 9.2196 20.4167 9.83325 20.4167C10.4469 20.4167 10.9444 19.9192 10.9444 19.3056ZM14.4999 19.3056C14.4999 17.9555 15.5943 16.8611 16.9444 16.8611C18.2944 16.8611 19.3888 17.9555 19.3888 19.3056C19.3888 20.6556 18.2944 21.75 16.9444 21.75C15.5943 21.75 14.4999 20.6556 14.4999 19.3056ZM18.0555 19.3056C18.0555 18.6919 17.558 18.1944 16.9444 18.1944C16.3307 18.1944 15.8333 18.6919 15.8333 19.3056C15.8333 19.9192 16.3307 20.4167 16.9444 20.4167C17.558 20.4167 18.0555 19.9192 18.0555 19.3056Z" fill="white"/>
</svg>
