<svg width="144" height="24" viewBox="0 0 144 24" fill="none" xmlns="http://www.w3.org/2000/svg">
<path fill-rule="evenodd" clip-rule="evenodd" d="M104 12C104 18.6274 98.6274 24 92 24C85.3726 24 80 18.6274 80 12C80 5.37258 85.3726 0 92 0C98.6274 0 104 5.37258 104 12Z" fill="#B49DDF"/>
<path fill-rule="evenodd" clip-rule="evenodd" d="M64 12C64 18.6274 58.6274 24 52 24C45.3726 24 40 18.6274 40 12C40 5.37258 45.3726 0 52 0C58.6274 0 64 5.37258 64 12Z" fill="#EA95BF"/>
<path fill-rule="evenodd" clip-rule="evenodd" d="M24 12C24 18.6274 18.6274 24 12 24C5.37258 24 0 18.6274 0 12C0 5.37258 5.37258 0 12 0C18.6274 0 24 5.37258 24 12Z" fill="#0D6EFD"/>
<path fill-rule="evenodd" clip-rule="evenodd" d="M15.6098 9.10983C15.7563 8.96339 15.9937 8.96339 16.1402 9.10983C16.2733 9.24297 16.2854 9.4513 16.1765 9.59811L16.1402 9.64017L11.1402 14.6402C11.007 14.7733 10.7987 14.7854 10.6519 14.6765L10.6098 14.6402L8.10983 12.1402C7.96339 11.9937 7.96339 11.7563 8.10983 11.6098C8.24297 11.4767 8.4513 11.4646 8.59811 11.5735L8.64017 11.6098L10.875 13.8445L15.6098 9.10983Z" fill="white"/>
</svg>
