<svg width="92" height="12" viewBox="0 0 92 12" fill="none" xmlns="http://www.w3.org/2000/svg">
<path fill-rule="evenodd" clip-rule="evenodd" d="M9.73317 11.9408C9.57187 11.9408 9.42848 11.887 9.30302 11.8153L6.75799 10.1485C6.72214 10.1306 6.70422 10.1306 6.66837 10.1485L4.12334 11.8153C3.97995 11.887 3.83657 11.9408 3.67527 11.9408C3.42435 11.9408 3.19135 11.8333 3.04797 11.6361C2.88666 11.439 2.83289 11.188 2.90459 10.955L3.6215 7.81856C3.6215 7.78272 3.6215 7.74687 3.58565 7.72895L1.23776 5.61406C1.00477 5.39898 0.915155 5.05845 1.00477 4.75376C1.11231 4.44908 1.38115 4.234 1.70376 4.21608L4.73271 3.98308C4.76856 3.98308 4.78648 3.96516 4.8044 3.92931L5.93354 0.989976C6.07692 0.667366 6.36368 0.470215 6.70422 0.470215C7.04475 0.470215 7.33152 0.667366 7.45698 0.989976L8.58611 3.92931C8.60403 3.96516 8.62196 3.98308 8.6578 3.98308L11.6868 4.21608C12.0094 4.234 12.2782 4.44908 12.3857 4.75376C12.4933 5.05845 12.4037 5.39898 12.1527 5.61406L9.80486 7.72895C9.78694 7.74687 9.76902 7.78272 9.76902 7.81856L10.5039 10.955C10.5576 11.188 10.5039 11.439 10.3605 11.6361C10.2171 11.8333 9.96617 11.9408 9.73317 11.9408ZM29.0677 11.8153C29.1932 11.887 29.3366 11.9408 29.4979 11.9408C29.7309 11.9408 29.9818 11.8333 30.1252 11.6361C30.2686 11.439 30.3223 11.188 30.2686 10.955L29.5337 7.81856C29.5337 7.78272 29.5516 7.74687 29.5696 7.72895L31.9175 5.61406C32.1684 5.39898 32.258 5.05845 32.1505 4.75376C32.0429 4.44908 31.7741 4.234 31.4515 4.21608L28.4225 3.98308C28.3867 3.98308 28.3687 3.96516 28.3508 3.92931L27.2217 0.989976C27.0962 0.667366 26.8095 0.470215 26.4689 0.470215C26.1284 0.470215 25.8416 0.667366 25.6982 0.989976L24.5691 3.92931C24.5512 3.96516 24.5333 3.98308 24.4974 3.98308L21.4685 4.21608C21.1459 4.234 20.877 4.44908 20.7695 4.75376C20.6799 5.05845 20.7695 5.39898 21.0025 5.61406L23.3504 7.72895C23.3862 7.74687 23.3862 7.78272 23.3862 7.81856L22.6693 10.955C22.5976 11.188 22.6514 11.439 22.8127 11.6361C22.9561 11.8333 23.1891 11.9408 23.44 11.9408C23.6013 11.9408 23.7447 11.887 23.888 11.8153L26.4331 10.1485C26.4689 10.1306 26.4868 10.1306 26.5227 10.1485L29.0677 11.8153ZM49.2626 11.9408C49.1013 11.9408 48.9579 11.887 48.8324 11.8153L46.2874 10.1485C46.2516 10.1306 46.2336 10.1306 46.1978 10.1485L43.6527 11.8153C43.5094 11.887 43.366 11.9408 43.2047 11.9408C42.9538 11.9408 42.7208 11.8333 42.5774 11.6361C42.4161 11.439 42.3623 11.188 42.434 10.955L43.1509 7.81856C43.1509 7.78272 43.1509 7.74687 43.1151 7.72895L40.7672 5.61406C40.5342 5.39898 40.4446 5.05845 40.5342 4.75376C40.6417 4.44908 40.9106 4.234 41.2332 4.21608L44.2621 3.98308C44.298 3.98308 44.3159 3.96516 44.3338 3.92931L45.4629 0.989976C45.6063 0.667366 45.8931 0.470215 46.2336 0.470215C46.5742 0.470215 46.8609 0.667366 46.9864 0.989976L48.1155 3.92931C48.1334 3.96516 48.1514 3.98308 48.1872 3.98308L51.2162 4.21608C51.5388 4.234 51.8076 4.44908 51.9152 4.75376C52.0227 5.05845 51.9331 5.39898 51.6822 5.61406L49.3343 7.72895C49.3163 7.74687 49.2984 7.78272 49.2984 7.81856L50.0333 10.955C50.087 11.188 50.0333 11.439 49.8899 11.6361C49.7465 11.8333 49.4956 11.9408 49.2626 11.9408ZM68.5972 11.8153C68.7226 11.887 68.866 11.9408 69.0273 11.9408C69.2603 11.9408 69.5112 11.8333 69.6546 11.6361C69.798 11.439 69.8518 11.188 69.798 10.955L69.0632 7.81856C69.0632 7.78272 69.0811 7.74687 69.099 7.72895L71.4469 5.61406C71.6978 5.39898 71.7874 5.05845 71.6799 4.75376C71.5723 4.44908 71.3035 4.234 70.9809 4.21608L67.9519 3.98308C67.9161 3.98308 67.8982 3.96516 67.8802 3.92931L66.7511 0.989976C66.6257 0.667366 66.3389 0.470215 65.9984 0.470215C65.6578 0.470215 65.3711 0.667366 65.2277 0.989976L64.0985 3.92931C64.0806 3.96516 64.0627 3.98308 64.0269 3.98308L60.9979 4.21608C60.6753 4.234 60.4064 4.44908 60.2989 4.75376C60.2093 5.05845 60.2989 5.39898 60.5319 5.61406L62.8798 7.72895C62.9156 7.74687 62.9156 7.78272 62.9156 7.81856L62.1987 10.955C62.127 11.188 62.1808 11.439 62.3421 11.6361C62.4855 11.8333 62.7185 11.9408 62.9694 11.9408C63.1307 11.9408 63.2741 11.887 63.4175 11.8153L65.9625 10.1485C65.9984 10.1306 66.0163 10.1306 66.0521 10.1485L68.5972 11.8153ZM88.3619 11.8153C88.4873 11.887 88.6307 11.9408 88.792 11.9408C89.025 11.9408 89.2759 11.8333 89.4193 11.6361C89.5627 11.439 89.6165 11.188 89.5627 10.955L88.8279 7.81856C88.8279 7.78272 88.8458 7.74687 88.8637 7.72895L91.2116 5.61406C91.4625 5.39898 91.5521 5.05845 91.4446 4.75376C91.3371 4.44908 91.0682 4.234 90.7456 4.21608L87.7167 3.98308C87.6808 3.98308 87.6629 3.96516 87.645 3.92931L86.5158 0.989976C86.3904 0.667366 86.1036 0.470215 85.7631 0.470215C85.4225 0.470215 85.1358 0.667366 84.9924 0.989976L83.8633 3.92931C83.8453 3.96516 83.8274 3.98308 83.7916 3.98308L80.7626 4.21608C80.44 4.234 80.1712 4.44908 80.0636 4.75376C79.974 5.05845 80.0636 5.39898 80.2966 5.61406L82.6445 7.72895C82.6803 7.74687 82.6803 7.78272 82.6803 7.81856L81.9634 10.955C81.8917 11.188 81.9455 11.439 82.1068 11.6361C82.2502 11.8333 82.4832 11.9408 82.7341 11.9408C82.8954 11.9408 83.0388 11.887 83.1822 11.8153L85.7272 10.1485C85.7631 10.1306 85.781 10.1306 85.8168 10.1485L88.3619 11.8153Z" fill="#FD7E14"/>
</svg>
